{"accessors":[{"bufferView":0,"componentType":5123,"count":2880,"max":[558],"min":[0],"type":"SCALAR"},{"bufferView":1,"componentType":5126,"count":559,"max":[0.9573397636413574,1.0638337135314941,0.9989742040634155],"min":[-1.0426602363586426,-0.9361662864685059,-1.0010262727737427],"type":"VEC3"},{"bufferView":2,"componentType":5126,"count":559,"max":[1.0,1.0,1.0],"min":[-1.0,-1.0,-1.0],"type":"VEC3"},{"bufferView":3,"componentType":5126,"count":559,"max":[1.000000238418579,1.0],"min":[0.0,0.0],"type":"VEC2"},{"bufferView":4,"componentType":5123,"count":2880,"max":[558],"min":[0],"type":"SCALAR"},{"bufferView":5,"componentType":5126,"count":559,"max":[1.5382359027862549,1.5157830715179443,1.5248605012893677],"min":[-1.5290995836257935,-1.5515525341033936,-1.5424753427505493],"type":"VEC3"},{"bufferView":6,"componentType":5126,"count":559,"max":[1.0,1.0,1.0],"min":[-1.0,-1.0,-1.0],"type":"VEC3"},{"bufferView":7,"componentType":5126,"count":559,"max":[1.000000238418579,1.0],"min":[0.0,0.0],"type":"VEC2"},{"bufferView":8,"componentType":5126,"count":11,"max":[0.4166666666666667],"min":[0.0],"type":"SCALAR"},{"bufferView":9,"componentType":5126,"count":11,"max":[-1.2165879011154175,1.2974798679351807,1.5832140445709229],"min":[-2.6381378173828125,0.2808784544467926,1.0870155096054077],"type":"VEC3"},{"bufferView":10,"componentType":5126,"count":11,"max":[0.4166666666666667],"min":[0.0],"type":"SCALAR"},{"bufferView":11,"componentType":5126,"count":11,"max":[0.0,0.0,-0.0,1.0],"min":[0.0,0.0,-0.0,1.0],"type":"VEC4"},{"bufferView":12,"componentType":5126,"count":11,"max":[0.4166666666666667],"min":[0.0],"type":"SCALAR"},{"bufferView":13,"componentType":5126,"count":11,"max":[1.8962271213531494,1.8962271213531494,1.8962271213531494],"min":[1.0,1.0,1.0],"type":"VEC3"},{"bufferView":14,"componentType":5126,"count":11,"max":[0.4166666666666667],"min":[0.0],"type":"SCALAR"},{"bufferView":15,"componentType":5126,"count":11,"max":[1.0456479787826538,1.8503271341323853,-1.2481461763381958],"min":[0.8918375968933105,0.1915053129196167,-3.712096691131592],"type":"VEC3"},{"bufferView":16,"componentType":5126,"count":11,"max":[0.4166666666666667],"min":[0.0],"type":"SCALAR"},{"bufferView":17,"componentType":5126,"count":11,"max":[0.0,0.0,-0.0,1.0],"min":[0.0,0.0,-0.0,1.0],"type":"VEC4"},{"bufferView":18,"componentType":5126,"count":11,"max":[0.4166666666666667],"min":[0.0],"type":"SCALAR"},{"bufferView":19,"componentType":5126,"count":11,"max":[1.0,1.0,1.0],"min":[0.4290406107902527,0.4290406107902527,0.4290406107902527],"type":"VEC3"}],"animations":[{"channels":[{"sampler":0,"target":{"node":1,"path":"translation"}},{"sampler":1,"target":{"node":1,"path":"rotation"}},{"sampler":2,"target":{"node":1,"path":"scale"}}],"extensions":{"S8S_v3d_animation_data":{"auto":false,"loop":"ONCE","offset":0.0,"repeatCount":1.0,"repeatInfinite":true}},"name":"Sphere02","samplers":[{"input":8,"interpolation":"LINEAR","output":9},{"input":10,"interpolation":"LINEAR","output":11},{"input":12,"interpolation":"LINEAR","output":13}]},{"channels":[{"sampler":0,"target":{"node":3,"path":"translation"}},{"sampler":1,"target":{"node":3,"path":"rotation"}},{"sampler":2,"target":{"node":3,"path":"scale"}}],"extensions":{"S8S_v3d_animation_data":{"auto":false,"loop":"ONCE","offset":0.0,"repeatCount":1.0,"repeatInfinite":true}},"name":"Sphere01","samplers":[{"input":14,"interpolation":"LINEAR","output":15},{"input":16,"interpolation":"LINEAR","output":17},{"input":18,"interpolation":"LINEAR","output":19}]}],"asset":{"generator":"Soft8Soft Verge3D for Blender add-on","version":"2.0"},"bufferViews":[{"buffer":0,"byteLength":5760,"byteOffset":0,"target":34963},{"buffer":0,"byteLength":6708,"byteOffset":5760,"target":34962},{"buffer":0,"byteLength":6708,"byteOffset":12468,"target":34962},{"buffer":0,"byteLength":4472,"byteOffset":19176,"target":34962},{"buffer":0,"byteLength":5760,"byteOffset":23648,"target":34963},{"buffer":0,"byteLength":6708,"byteOffset":29408,"target":34962},{"buffer":0,"byteLength":6708,"byteOffset":36116,"target":34962},{"buffer":0,"byteLength":4472,"byteOffset":42824,"target":34962},{"buffer":0,"byteLength":44,"byteOffset":47296},{"buffer":0,"byteLength":132,"byteOffset":47340},{"buffer":0,"byteLength":44,"byteOffset":47472},{"buffer":0,"byteLength":176,"byteOffset":47516},{"buffer":0,"byteLength":44,"byteOffset":47692},{"buffer":0,"byteLength":132,"byteOffset":47736},{"buffer":0,"byteLength":44,"byteOffset":47868},{"buffer":0,"byteLength":132,"byteOffset":47912},{"buffer":0,"byteLength":44,"byteOffset":48044},{"buffer":0,"byteLength":176,"byteOffset":48088},{"buffer":0,"byteLength":44,"byteOffset":48264},{"buffer":0,"byteLength":132,"byteOffset":48308}],"buffers":[{"byteLength":48440,"uri":"scene02.bin"}],"cameras":[{"extensions":{"S8S_v3d_camera_data":{"controls":"ORBIT","enablePan":true,"moveSpeed":1.0,"orbitMaxDistance":100.0,"orbitMaxPolarAngle":3.1415927410125732,"orbitMinDistance":0.0,"orbitMinPolarAngle":0.0,"orbitTarget":[0.0,0.0,-0.0],"rotateSpeed":1.0,"viewportFitInitialAspect":1.7777777777777777,"viewportFitType":"AUTO"}},"name":"Camera","perspective":{"aspectRatio":1.7777777777777777,"yfov":0.5033799372418416,"zfar":100.0,"znear":0.10000000149011612},"type":"perspective"}],"extensions":{"S8S_v3d_data":{"lights":[{"color":[1.0,1.0,1.0],"constantAttenuation":1.0,"decay":2,"distance":10.00000011175871,"intensity":100.0,"linearAttenuation":0.0,"name":"Lamp","profile":"blender","quadraticAttenuation":0.0999999988824129,"shadow":{"bias":-0.0018,"cameraFar":10.00000011175871,"cameraFov":0,"cameraNear":1.0007989406585693,"enabled":true,"expBias":2.5,"mapSize":512,"radius":1.0,"slopeScaledBias":2.5},"type":"point"}]}},"extensionsUsed":["S8S_v3d_texture_data","S8S_v3d_material_data","S8S_v3d_camera_data","S8S_v3d_data","S8S_v3d_mesh_data","S8S_v3d_node_data","S8S_v3d_animation_data","S8S_v3d_scene_data"],"images":[{"uri":"environment.hdr"}],"materials":[{"extensions":{"S8S_v3d_material_data":{"nodeGraph":{"edges":[{"fromNode":1,"fromOutput":0,"toInput":0,"toNode":0}],"nodes":[{"inputs":[[0,0,0,0],[0,0,0,0],[0.0,0.0,0.0]],"is_active_output":true,"name":"Material Output","outputs":[],"type":"OUTPUT_MATERIAL_BL"},{"inputs":[[0.0011568686459213495,0.40996992588043213,0.8000000715255737,1.0],0.0,[0.0,0.0,0.0]],"is_active_output":false,"name":"Diffuse BSDF","outputs":[[0,0,0,0]],"type":"BSDF_DIFFUSE_BL"}]},"useCastShadows":true}},"name":"cube_material"},{"extensions":{"S8S_v3d_material_data":{"nodeGraph":{"edges":[{"fromNode":1,"fromOutput":0,"toInput":0,"toNode":0}],"nodes":[{"inputs":[[0,0,0,0],[0,0,0,0],[0.0,0.0,0.0]],"is_active_output":true,"name":"Material Output","outputs":[],"type":"OUTPUT_MATERIAL_BL"},{"inputs":[[0.0,0.8000000715255737,0.34398335218429565,1.0],0.0,[0.0,0.0,0.0]],"is_active_output":false,"name":"Diffuse BSDF","outputs":[[0,0,0,0]],"type":"BSDF_DIFFUSE_BL"}]},"useCastShadows":true}},"name":"cube_material.001"},{"extensions":{"S8S_v3d_material_data":{"nodeGraph":{"edges":[{"fromNode":0,"fromOutput":0,"toInput":0,"toNode":1},{"fromNode":4,"fromOutput":0,"toInput":1,"toNode":2},{"fromNode":3,"fromOutput":0,"toInput":0,"toNode":2},{"fromNode":2,"fromOutput":0,"toInput":0,"toNode":0}],"nodes":[{"inputs":[[0.05087608844041824,0.05087608844041824,0.05087608844041824,1.0],1.0],"is_active_output":false,"name":"Background","outputs":[[0,0,0,0]],"type":"BACKGROUND_BL"},{"inputs":[[0,0,0,0],[0,0,0,0]],"is_active_output":true,"name":"World Output","outputs":[],"type":"OUTPUT_WORLD_BL"},{"blendType":"MIX","inputs":[0.5,[0.5,0.5,0.5,1.0],[0.05126946419477463,0.05126946419477463,0.05126946419477463,1.0]],"is_active_output":false,"name":"Mix","outputs":[[0.0,0.0,0.0,0.0]],"type":"MIX_RGB_BL","useClamp":false},{"inputs":[],"is_active_output":false,"name":"Light Path","outputs":[0.0,0.0,0.0,0.0,0.0,0.0,0.0,0.0,0.0,0.0,0.0,0.0,0.0],"type":"LIGHT_PATH_BL"},{"inputs":[[0.0,0.0,0.0]],"is_active_output":false,"name":"Environment Texture","outputs":[[0.0,0.0,0.0,0.0]],"projection":"EQUIRECTANGULAR","texture":0,"type":"TEX_ENVIRONMENT_BL"}]},"useCastShadows":true}},"name":"Verge3D_Environment_World"}],"meshes":[{"extensions":{"S8S_v3d_mesh_data":{"colorLayers":{},"uvLayers":{"UVMap":"TEXCOORD_0"}}},"name":"Cube","primitives":[{"attributes":{"NORMAL":2,"POSITION":1,"TEXCOORD_0":3},"indices":0,"material":1,"mode":4}]},{"extensions":{"S8S_v3d_mesh_data":{"colorLayers":{},"uvLayers":{"UVMap":"TEXCOORD_0"}}},"name":"Cube.001","primitives":[{"attributes":{"NORMAL":6,"POSITION":5,"TEXCOORD_0":7},"indices":4,"material":0,"mode":4}]}],"nodes":[{"extensions":{"S8S_v3d_node_data":{"frustumCulling":true,"groupNames":["Collection 1"],"hidden":false,"light":0,"renderOrder":0}},"name":"Lamp","rotation":[-0.2841663062572479,0.7269423604011536,0.34203389286994934,0.5232754945755005],"scale":[0.9999999403953552,0.9999997615814209,0.9999998807907104],"translation":[4.076245307922363,5.903861999511719,-1.0054539442062378]},{"extensions":{"S8S_v3d_node_data":{"frustumCulling":true,"groupNames":["Collection 1"],"hidden":false,"renderOrder":0,"useShadows":true}},"mesh":0,"name":"Sphere02","translation":[-1.2165879011154175,0.2808784544467926,1.0870155096054077]},{"camera":0,"extensions":{"S8S_v3d_node_data":{"frustumCulling":true,"groupNames":["Collection 1"],"hidden":false,"renderOrder":0}},"name":"Camera","rotation":[-0.2099730223417282,0.3857799768447876,0.09062845259904861,0.8937963247299194],"scale":[1.0,0.9999998807907104,0.9999998807907104],"translation":[7.226052284240723,5.1113457679748535,6.946681022644043]},{"extensions":{"S8S_v3d_node_data":{"frustumCulling":true,"groupNames":["Collection 1"],"hidden":false,"renderOrder":0,"useShadows":true}},"mesh":1,"name":"Sphere01","translation":[1.0456479787826538,0.1915053129196167,-1.2481461763381958]}],"samplers":[{}],"scene":0,"scenes":[{"extensions":{"S8S_v3d_scene_data":{"aaMethod":"AUTO","iblEnvironmentMode":"PMREM","physicallyCorrectLights":true,"pmremMaxTileSize":256,"shadowMap":{"esmDistanceScale":1.0,"renderReverseSided":false,"renderSingleSided":true,"type":"PCFPOISSON"},"worldMaterial":2}},"extras":{"animFrameRate":24,"coordSystem":"Z_UP_RIGHT"},"name":"Scene","nodes":[0,2,1,3]}],"textures":[{"extensions":{"S8S_v3d_texture_data":{"colorSpace":"linear"}},"name":"environment.hdr","sampler":0,"source":0}]}
