{"accessors":[{"bufferView":0,"componentType":5121,"count":36,"max":[23],"min":[0],"type":"SCALAR"},{"bufferView":1,"componentType":5126,"count":24,"max":[0.5936217904090881,0.5936217904090881,0.5936217904090881],"min":[-0.5936217904090881,-0.5936217904090881,-0.5936217904090881],"type":"VEC3"},{"bufferView":2,"componentType":5126,"count":24,"max":[1.0,1.0,1.0],"min":[-1.0,-1.0,-1.0],"type":"VEC3"},{"bufferView":3,"componentType":5126,"count":24,"max":[0.875,1.0],"min":[0.125,0.0],"type":"VEC2"},{"bufferView":4,"componentType":5123,"count":2304,"max":[440],"min":[0],"type":"SCALAR"},{"bufferView":5,"componentType":5126,"count":441,"max":[0.8395062685012817,0.8395062685012817,0.8395062685012817],"min":[-0.8395062685012817,-0.8395062685012817,-0.8395062685012817],"type":"VEC3"},{"bufferView":6,"componentType":5126,"count":441,"max":[1.0,1.0,1.0],"min":[-1.0,-1.0,-1.0],"type":"VEC3"},{"bufferView":7,"componentType":5126,"count":441,"max":[0.8750001192092896,1.0],"min":[0.1250000149011612,-1.1920928955078125e-07],"type":"VEC2"},{"bufferView":8,"componentType":5126,"count":11,"max":[0.4166666666666667],"min":[0.0],"type":"SCALAR"},{"bufferView":9,"componentType":5126,"count":11,"max":[1.0456479787826538,1.9231560230255127,-1.2481461763381958],"min":[1.0456479787826538,0.1915053129196167,-1.2481461763381958],"type":"VEC3"},{"bufferView":10,"componentType":5126,"count":11,"max":[0.4166666666666667],"min":[0.0],"type":"SCALAR"},{"bufferView":11,"componentType":5126,"count":11,"max":[-1.0,0.5813120007514954,1.3553540706634521],"min":[-2.04433536529541,0.0,1.0],"type":"VEC3"},{"bufferView":12,"componentType":5126,"count":11,"max":[0.4166666666666667],"min":[0.0],"type":"SCALAR"},{"bufferView":13,"componentType":5126,"count":11,"max":[0.0,0.5973153710365295,-0.0,1.0],"min":[0.0,0.0,-0.0,0.8020064234733582],"type":"VEC4"},{"bufferView":14,"componentType":5126,"count":11,"max":[0.4166666666666667],"min":[0.0],"type":"SCALAR"},{"bufferView":15,"componentType":5126,"count":11,"max":[1.0,1.0,1.0],"min":[1.0,1.0,1.0],"type":"VEC3"}],"animations":[{"channels":[{"sampler":0,"target":{"node":2,"path":"translation"}}],"extensions":{"S8S_v3d_animation_data":{"auto":false,"loop":"ONCE","offset":0.0,"repeatCount":1.0,"repeatInfinite":true}},"name":"Sphere","samplers":[{"input":8,"interpolation":"LINEAR","output":9}]},{"channels":[{"sampler":0,"target":{"node":3,"path":"translation"}},{"sampler":1,"target":{"node":3,"path":"rotation"}},{"sampler":2,"target":{"node":3,"path":"scale"}}],"extensions":{"S8S_v3d_animation_data":{"auto":false,"loop":"ONCE","offset":0.0,"repeatCount":1.0,"repeatInfinite":true}},"name":"Cube","samplers":[{"input":10,"interpolation":"LINEAR","output":11},{"input":12,"interpolation":"LINEAR","output":13},{"input":14,"interpolation":"LINEAR","output":15}]}],"asset":{"generator":"Soft8Soft Verge3D for Blender add-on","version":"2.0"},"bufferViews":[{"buffer":0,"byteLength":36,"byteOffset":0,"target":34963},{"buffer":0,"byteLength":288,"byteOffset":36,"target":34962},{"buffer":0,"byteLength":288,"byteOffset":324,"target":34962},{"buffer":0,"byteLength":192,"byteOffset":612,"target":34962},{"buffer":0,"byteLength":4608,"byteOffset":804,"target":34963},{"buffer":0,"byteLength":5292,"byteOffset":5412,"target":34962},{"buffer":0,"byteLength":5292,"byteOffset":10704,"target":34962},{"buffer":0,"byteLength":3528,"byteOffset":15996,"target":34962},{"buffer":0,"byteLength":44,"byteOffset":19524},{"buffer":0,"byteLength":132,"byteOffset":19568},{"buffer":0,"byteLength":44,"byteOffset":19700},{"buffer":0,"byteLength":132,"byteOffset":19744},{"buffer":0,"byteLength":44,"byteOffset":19876},{"buffer":0,"byteLength":176,"byteOffset":19920},{"buffer":0,"byteLength":44,"byteOffset":20096},{"buffer":0,"byteLength":132,"byteOffset":20140}],"buffers":[{"byteLength":20272,"uri":"scene01.bin"}],"cameras":[{"extensions":{"S8S_v3d_camera_data":{"controls":"ORBIT","enablePan":true,"moveSpeed":1.0,"orbitMaxDistance":100.0,"orbitMaxPolarAngle":3.1415927410125732,"orbitMinDistance":0.0,"orbitMinPolarAngle":0.0,"orbitTarget":[0.0,0.0,-0.0],"rotateSpeed":1.0,"viewportFitInitialAspect":1.7777777777777777,"viewportFitType":"AUTO"}},"name":"Camera","perspective":{"aspectRatio":1.7777777777777777,"yfov":0.5033799372418416,"zfar":100.0,"znear":0.10000000149011612},"type":"perspective"}],"extensions":{"S8S_v3d_data":{"lights":[{"color":[1.0,1.0,1.0],"constantAttenuation":1.0,"decay":2,"distance":10.00000011175871,"intensity":100.0,"linearAttenuation":0.0,"name":"Lamp","profile":"blender","quadraticAttenuation":0.0999999988824129,"shadow":{"bias":-0.0018,"cameraFar":10.00000011175871,"cameraFov":0,"cameraNear":1.0007989406585693,"enabled":true,"expBias":2.5,"mapSize":512,"radius":1.0,"slopeScaledBias":2.5},"type":"point"}]}},"extensionsUsed":["S8S_v3d_texture_data","S8S_v3d_material_data","S8S_v3d_camera_data","S8S_v3d_data","S8S_v3d_mesh_data","S8S_v3d_node_data","S8S_v3d_animation_data","S8S_v3d_scene_data"],"images":[{"uri":"environment.hdr"}],"materials":[{"extensions":{"S8S_v3d_material_data":{"nodeGraph":{"edges":[{"fromNode":1,"fromOutput":0,"toInput":0,"toNode":0}],"nodes":[{"inputs":[[0,0,0,0],[0,0,0,0],[0.0,0.0,0.0]],"is_active_output":true,"name":"Material Output","outputs":[],"type":"OUTPUT_MATERIAL_BL"},{"inputs":[[0.8000000715255737,0.36703330278396606,0.0,1.0],0.0,[0.0,0.0,0.0]],"is_active_output":false,"name":"Diffuse BSDF","outputs":[[0,0,0,0]],"type":"BSDF_DIFFUSE_BL"}]},"useCastShadows":true}},"name":"cube_material"},{"extensions":{"S8S_v3d_material_data":{"nodeGraph":{"edges":[{"fromNode":1,"fromOutput":0,"toInput":0,"toNode":0}],"nodes":[{"inputs":[[0,0,0,0],[0,0,0,0],[0.0,0.0,0.0]],"is_active_output":true,"name":"Material Output","outputs":[],"type":"OUTPUT_MATERIAL_BL"},{"inputs":[[0.8000000715255737,0.10557437688112259,0.0,1.0],0.0,[0.0,0.0,0.0]],"is_active_output":false,"name":"Diffuse BSDF","outputs":[[0,0,0,0]],"type":"BSDF_DIFFUSE_BL"}]},"useCastShadows":true}},"name":"cube_material.001"},{"extensions":{"S8S_v3d_material_data":{"nodeGraph":{"edges":[{"fromNode":0,"fromOutput":0,"toInput":0,"toNode":1},{"fromNode":4,"fromOutput":0,"toInput":1,"toNode":2},{"fromNode":3,"fromOutput":0,"toInput":0,"toNode":2},{"fromNode":2,"fromOutput":0,"toInput":0,"toNode":0}],"nodes":[{"inputs":[[0.05087608844041824,0.05087608844041824,0.05087608844041824,1.0],1.0],"is_active_output":false,"name":"Background","outputs":[[0,0,0,0]],"type":"BACKGROUND_BL"},{"inputs":[[0,0,0,0],[0,0,0,0]],"is_active_output":true,"name":"World Output","outputs":[],"type":"OUTPUT_WORLD_BL"},{"blendType":"MIX","inputs":[0.5,[0.5,0.5,0.5,1.0],[0.05126946419477463,0.05126946419477463,0.05126946419477463,1.0]],"is_active_output":false,"name":"Mix","outputs":[[0.0,0.0,0.0,0.0]],"type":"MIX_RGB_BL","useClamp":false},{"inputs":[],"is_active_output":false,"name":"Light Path","outputs":[0.0,0.0,0.0,0.0,0.0,0.0,0.0,0.0,0.0,0.0,0.0,0.0,0.0],"type":"LIGHT_PATH_BL"},{"inputs":[[0.0,0.0,0.0]],"is_active_output":false,"name":"Environment Texture","outputs":[[0.0,0.0,0.0,0.0]],"projection":"EQUIRECTANGULAR","texture":0,"type":"TEX_ENVIRONMENT_BL"}]},"useCastShadows":true}},"name":"Verge3D_Environment_World"}],"meshes":[{"extensions":{"S8S_v3d_mesh_data":{"colorLayers":{},"uvLayers":{"UVMap":"TEXCOORD_0"}}},"name":"Cube","primitives":[{"attributes":{"NORMAL":2,"POSITION":1,"TEXCOORD_0":3},"indices":0,"material":1,"mode":4}]},{"extensions":{"S8S_v3d_mesh_data":{"colorLayers":{},"uvLayers":{"UVMap":"TEXCOORD_0"}}},"name":"Cube.001","primitives":[{"attributes":{"NORMAL":6,"POSITION":5,"TEXCOORD_0":7},"indices":4,"material":0,"mode":4}]}],"nodes":[{"extensions":{"S8S_v3d_node_data":{"frustumCulling":true,"groupNames":["Collection 1"],"hidden":false,"light":0,"renderOrder":0}},"name":"Lamp","rotation":[-0.2841663062572479,0.7269423604011536,0.34203389286994934,0.5232754945755005],"scale":[0.9999999403953552,0.9999997615814209,0.9999998807907104],"translation":[4.076245307922363,5.903861999511719,-1.0054539442062378]},{"camera":0,"extensions":{"S8S_v3d_node_data":{"frustumCulling":true,"groupNames":["Collection 1"],"hidden":false,"renderOrder":0}},"name":"Camera","rotation":[-0.2099730223417282,0.3857799768447876,0.09062845259904861,0.8937963247299194],"scale":[1.0,0.9999998807907104,0.9999998807907104],"translation":[7.226052284240723,5.1113457679748535,6.946681022644043]},{"extensions":{"S8S_v3d_node_data":{"frustumCulling":true,"groupNames":["Collection 1"],"hidden":false,"renderOrder":0,"useShadows":true}},"mesh":1,"name":"Sphere","translation":[1.0456479787826538,0.1915053129196167,-1.2481461763381958]},{"extensions":{"S8S_v3d_node_data":{"frustumCulling":true,"groupNames":["Collection 1"],"hidden":false,"renderOrder":0,"useShadows":true}},"mesh":0,"name":"Cube","translation":[-1.0,0.0,1.0]}],"samplers":[{}],"scene":0,"scenes":[{"extensions":{"S8S_v3d_scene_data":{"aaMethod":"AUTO","iblEnvironmentMode":"PMREM","physicallyCorrectLights":true,"pmremMaxTileSize":256,"shadowMap":{"esmDistanceScale":1.0,"renderReverseSided":false,"renderSingleSided":true,"type":"PCFPOISSON"},"worldMaterial":2}},"extras":{"animFrameRate":24,"coordSystem":"Z_UP_RIGHT"},"name":"Scene","nodes":[0,1,3,2]}],"textures":[{"extensions":{"S8S_v3d_texture_data":{"colorSpace":"linear"}},"name":"environment.hdr","sampler":0,"source":0}]}
